<mxfile host="app.diagrams.net" modified="2021-05-13T11:28:07.099Z" agent="5.0 (Windows NT 10.0; Win64; x64) AppleWebKit/537.36 (KHTML, like Gecko) Chrome/89.0.4389.114 Safari/537.36" etag="mYw5s5Mx-w8-AM-gxkux" version="14.6.1" type="github">
  <diagram id="hKoiRvaUmIJJmXy9mLyD" name="Page-1">
    <mxGraphModel dx="1038" dy="548" grid="1" gridSize="10" guides="1" tooltips="1" connect="1" arrows="1" fold="1" page="1" pageScale="1" pageWidth="827" pageHeight="1169" math="0" shadow="0">
      <root>
        <mxCell id="0" />
        <mxCell id="1" parent="0" />
        <mxCell id="oXcP2Pd6q_dqRxEkMdqH-9" value="" style="edgeStyle=orthogonalEdgeStyle;rounded=0;orthogonalLoop=1;jettySize=auto;html=1;" edge="1" parent="1" source="oXcP2Pd6q_dqRxEkMdqH-1" target="oXcP2Pd6q_dqRxEkMdqH-2">
          <mxGeometry relative="1" as="geometry" />
        </mxCell>
        <mxCell id="oXcP2Pd6q_dqRxEkMdqH-1" value="start" style="ellipse;whiteSpace=wrap;html=1;" vertex="1" parent="1">
          <mxGeometry x="340" y="90" width="120" height="80" as="geometry" />
        </mxCell>
        <mxCell id="oXcP2Pd6q_dqRxEkMdqH-10" value="" style="edgeStyle=orthogonalEdgeStyle;rounded=0;orthogonalLoop=1;jettySize=auto;html=1;" edge="1" parent="1" source="oXcP2Pd6q_dqRxEkMdqH-2" target="oXcP2Pd6q_dqRxEkMdqH-4">
          <mxGeometry relative="1" as="geometry" />
        </mxCell>
        <mxCell id="oXcP2Pd6q_dqRxEkMdqH-2" value="从token中取到openId、unionId、crmId" style="rounded=0;whiteSpace=wrap;html=1;" vertex="1" parent="1">
          <mxGeometry x="295" y="240" width="210" height="60" as="geometry" />
        </mxCell>
        <mxCell id="oXcP2Pd6q_dqRxEkMdqH-11" value="" style="edgeStyle=orthogonalEdgeStyle;rounded=0;orthogonalLoop=1;jettySize=auto;html=1;" edge="1" parent="1" source="oXcP2Pd6q_dqRxEkMdqH-4" target="oXcP2Pd6q_dqRxEkMdqH-5">
          <mxGeometry relative="1" as="geometry" />
        </mxCell>
        <mxCell id="oXcP2Pd6q_dqRxEkMdqH-4" value="通过crmId查询fh_unioinid_info" style="rounded=0;whiteSpace=wrap;html=1;" vertex="1" parent="1">
          <mxGeometry x="285" y="360" width="230" height="60" as="geometry" />
        </mxCell>
        <mxCell id="oXcP2Pd6q_dqRxEkMdqH-12" value="" style="edgeStyle=orthogonalEdgeStyle;rounded=0;orthogonalLoop=1;jettySize=auto;html=1;" edge="1" parent="1" source="oXcP2Pd6q_dqRxEkMdqH-5" target="oXcP2Pd6q_dqRxEkMdqH-6">
          <mxGeometry relative="1" as="geometry" />
        </mxCell>
        <mxCell id="oXcP2Pd6q_dqRxEkMdqH-14" value="否" style="edgeLabel;html=1;align=center;verticalAlign=middle;resizable=0;points=[];" vertex="1" connectable="0" parent="oXcP2Pd6q_dqRxEkMdqH-12">
          <mxGeometry x="-0.2909" y="2" relative="1" as="geometry">
            <mxPoint as="offset" />
          </mxGeometry>
        </mxCell>
        <mxCell id="oXcP2Pd6q_dqRxEkMdqH-16" value="" style="edgeStyle=orthogonalEdgeStyle;rounded=0;orthogonalLoop=1;jettySize=auto;html=1;" edge="1" parent="1" source="oXcP2Pd6q_dqRxEkMdqH-5">
          <mxGeometry relative="1" as="geometry">
            <mxPoint x="400" y="680" as="targetPoint" />
          </mxGeometry>
        </mxCell>
        <mxCell id="oXcP2Pd6q_dqRxEkMdqH-5" value="&amp;nbsp;是否有crmId记录" style="rhombus;whiteSpace=wrap;html=1;" vertex="1" parent="1">
          <mxGeometry x="310" y="480" width="180" height="110" as="geometry" />
        </mxCell>
        <mxCell id="oXcP2Pd6q_dqRxEkMdqH-13" style="edgeStyle=orthogonalEdgeStyle;rounded=0;orthogonalLoop=1;jettySize=auto;html=1;entryX=0;entryY=0.5;entryDx=0;entryDy=0;" edge="1" parent="1" source="oXcP2Pd6q_dqRxEkMdqH-6" target="oXcP2Pd6q_dqRxEkMdqH-8">
          <mxGeometry relative="1" as="geometry" />
        </mxCell>
        <mxCell id="oXcP2Pd6q_dqRxEkMdqH-6" value="member表中添加数据 memberid 为m2" style="rounded=0;whiteSpace=wrap;html=1;" vertex="1" parent="1">
          <mxGeometry x="600" y="505" width="170" height="60" as="geometry" />
        </mxCell>
        <mxCell id="oXcP2Pd6q_dqRxEkMdqH-8" value="unionid表中添加数据 memberidm2、o2、c1" style="rounded=0;whiteSpace=wrap;html=1;" vertex="1" parent="1">
          <mxGeometry x="910" y="505" width="170" height="60" as="geometry" />
        </mxCell>
        <mxCell id="oXcP2Pd6q_dqRxEkMdqH-17" value="是" style="text;html=1;align=center;verticalAlign=middle;resizable=0;points=[];autosize=1;strokeColor=none;" vertex="1" parent="1">
          <mxGeometry x="375" y="620" width="30" height="20" as="geometry" />
        </mxCell>
        <mxCell id="oXcP2Pd6q_dqRxEkMdqH-22" style="edgeStyle=orthogonalEdgeStyle;rounded=0;orthogonalLoop=1;jettySize=auto;html=1;entryX=0.5;entryY=0;entryDx=0;entryDy=0;" edge="1" parent="1" source="oXcP2Pd6q_dqRxEkMdqH-18" target="oXcP2Pd6q_dqRxEkMdqH-21">
          <mxGeometry relative="1" as="geometry" />
        </mxCell>
        <mxCell id="oXcP2Pd6q_dqRxEkMdqH-26" value="" style="edgeStyle=orthogonalEdgeStyle;rounded=0;orthogonalLoop=1;jettySize=auto;html=1;" edge="1" parent="1" source="oXcP2Pd6q_dqRxEkMdqH-18" target="oXcP2Pd6q_dqRxEkMdqH-20">
          <mxGeometry relative="1" as="geometry" />
        </mxCell>
        <mxCell id="oXcP2Pd6q_dqRxEkMdqH-18" value="通过unionid查询crmID" style="rhombus;whiteSpace=wrap;html=1;" vertex="1" parent="1">
          <mxGeometry x="300" y="680" width="200" height="120" as="geometry" />
        </mxCell>
        <mxCell id="oXcP2Pd6q_dqRxEkMdqH-24" style="edgeStyle=orthogonalEdgeStyle;rounded=0;orthogonalLoop=1;jettySize=auto;html=1;" edge="1" parent="1" source="oXcP2Pd6q_dqRxEkMdqH-20">
          <mxGeometry relative="1" as="geometry">
            <mxPoint x="740" y="870" as="targetPoint" />
          </mxGeometry>
        </mxCell>
        <mxCell id="oXcP2Pd6q_dqRxEkMdqH-28" value="" style="edgeStyle=orthogonalEdgeStyle;rounded=0;orthogonalLoop=1;jettySize=auto;html=1;" edge="1" parent="1" source="oXcP2Pd6q_dqRxEkMdqH-20" target="oXcP2Pd6q_dqRxEkMdqH-27">
          <mxGeometry relative="1" as="geometry" />
        </mxCell>
        <mxCell id="oXcP2Pd6q_dqRxEkMdqH-20" value="判断是几个crmId" style="rhombus;whiteSpace=wrap;html=1;" vertex="1" parent="1">
          <mxGeometry x="310" y="880" width="180" height="130" as="geometry" />
        </mxCell>
        <mxCell id="oXcP2Pd6q_dqRxEkMdqH-21" value="报错" style="rounded=0;whiteSpace=wrap;html=1;" vertex="1" parent="1">
          <mxGeometry x="680" y="800" width="120" height="60" as="geometry" />
        </mxCell>
        <mxCell id="oXcP2Pd6q_dqRxEkMdqH-23" value="为空" style="text;html=1;align=center;verticalAlign=middle;resizable=0;points=[];autosize=1;strokeColor=none;" vertex="1" parent="1">
          <mxGeometry x="590" y="720" width="40" height="20" as="geometry" />
        </mxCell>
        <mxCell id="oXcP2Pd6q_dqRxEkMdqH-25" value="多个crmID" style="text;html=1;align=center;verticalAlign=middle;resizable=0;points=[];autosize=1;strokeColor=none;" vertex="1" parent="1">
          <mxGeometry x="545" y="930" width="70" height="20" as="geometry" />
        </mxCell>
        <mxCell id="oXcP2Pd6q_dqRxEkMdqH-31" value="" style="edgeStyle=orthogonalEdgeStyle;rounded=0;orthogonalLoop=1;jettySize=auto;html=1;" edge="1" parent="1" source="oXcP2Pd6q_dqRxEkMdqH-27" target="oXcP2Pd6q_dqRxEkMdqH-29">
          <mxGeometry relative="1" as="geometry" />
        </mxCell>
        <mxCell id="oXcP2Pd6q_dqRxEkMdqH-27" value="补充c1（H5的crmId）" style="rounded=0;whiteSpace=wrap;html=1;" vertex="1" parent="1">
          <mxGeometry x="315" y="1090" width="170" height="60" as="geometry" />
        </mxCell>
        <mxCell id="oXcP2Pd6q_dqRxEkMdqH-33" value="" style="edgeStyle=orthogonalEdgeStyle;rounded=0;orthogonalLoop=1;jettySize=auto;html=1;" edge="1" parent="1" source="oXcP2Pd6q_dqRxEkMdqH-29" target="oXcP2Pd6q_dqRxEkMdqH-32">
          <mxGeometry relative="1" as="geometry" />
        </mxCell>
        <mxCell id="oXcP2Pd6q_dqRxEkMdqH-29" value="return" style="rounded=0;whiteSpace=wrap;html=1;" vertex="1" parent="1">
          <mxGeometry x="310" y="1240" width="180" height="60" as="geometry" />
        </mxCell>
        <mxCell id="oXcP2Pd6q_dqRxEkMdqH-30" value="1个crmID" style="text;html=1;align=center;verticalAlign=middle;resizable=0;points=[];autosize=1;strokeColor=none;" vertex="1" parent="1">
          <mxGeometry x="385" y="1040" width="70" height="20" as="geometry" />
        </mxCell>
        <mxCell id="oXcP2Pd6q_dqRxEkMdqH-32" value="end" style="ellipse;whiteSpace=wrap;html=1;" vertex="1" parent="1">
          <mxGeometry x="340" y="1400" width="120" height="80" as="geometry" />
        </mxCell>
      </root>
    </mxGraphModel>
  </diagram>
</mxfile>
